<svg xmlns="http://www.w3.org/2000/svg" viewBox="0 0 127.54 15.71"><defs><style>.cls-1{fill:#c31632;}.cls-2{fill:#fff;}</style></defs><title>northcoders-news-logo</title><g id="Layer_2" data-name="Layer 2"><g id="Layer_1-2" data-name="Layer 1"><path class="cls-1" d="M7.61,6h-2L3.82,2.39,1.95,6H0L3.07,0H4.54Z"/><path class="cls-1" d="M5.4,15.48,2,9.93h0l0,5.56H0V7H2.34l3.41,5.54h0L5.74,7h2v8.5Z"/><path class="cls-2" d="M18.39,11.2A4.74,4.74,0,0,1,18,13a4.19,4.19,0,0,1-1,1.43,4.3,4.3,0,0,1-1.47.92,5.41,5.41,0,0,1-3.69,0,4.31,4.31,0,0,1-1.46-.92,4.19,4.19,0,0,1-1-1.43,4.73,4.73,0,0,1-.35-1.84,4.67,4.67,0,0,1,.35-1.84,4,4,0,0,1,1-1.4,4.3,4.3,0,0,1,1.46-.89,5.61,5.61,0,0,1,3.69,0A4.29,4.29,0,0,1,17.07,8a4,4,0,0,1,1,1.4A4.68,4.68,0,0,1,18.39,11.2Zm-2.2,0a2.91,2.91,0,0,0-.18-1,2.47,2.47,0,0,0-.5-.82,2.3,2.3,0,0,0-.77-.54,2.43,2.43,0,0,0-1-.2A2.36,2.36,0,0,0,12,9.35a2.33,2.33,0,0,0-.5.82,3,3,0,0,0-.17,1,3,3,0,0,0,.18,1.06,2.52,2.52,0,0,0,.5.83,2.27,2.27,0,0,0,.76.55,2.55,2.55,0,0,0,2,0,2.34,2.34,0,0,0,.77-.55,2.46,2.46,0,0,0,.5-.83A3,3,0,0,0,16.19,11.2Z"/><path class="cls-2" d="M24.32,15.48l-1.84-3.37h-.7v3.37h-2V7H23a5.63,5.63,0,0,1,1.19.13,3.1,3.1,0,0,1,1,.43,2.22,2.22,0,0,1,.74.79,2.47,2.47,0,0,1,.28,1.22A2.26,2.26,0,0,1,25.8,11a2.55,2.55,0,0,1-1.3.84l2.22,3.64Zm-.08-5.89a.85.85,0,0,0-.13-.49.86.86,0,0,0-.33-.29,1.43,1.43,0,0,0-.45-.14,3.31,3.31,0,0,0-.48,0h-1.1v2h1a3.33,3.33,0,0,0,.52,0,1.68,1.68,0,0,0,.48-.15.87.87,0,0,0,.49-.84Z"/><path class="cls-2" d="M31.49,8.74v6.74H29.44V8.74H27V7h6.85V8.74Z"/><path class="cls-2" d="M40.2,15.48V11.93H36.89v3.55H34.84V7h2.05v3.22H40.2V7h2.05v8.5Z"/><path class="cls-2" d="M50.13,15.33a4.55,4.55,0,0,1-1.91.38,5,5,0,0,1-1.82-.32A4.2,4.2,0,0,1,44,13a4.65,4.65,0,0,1-.35-1.82A4.66,4.66,0,0,1,44,9.38,4.11,4.11,0,0,1,45,8a4.34,4.34,0,0,1,1.46-.89,5.25,5.25,0,0,1,3.58,0A3.39,3.39,0,0,1,51.43,8L50,9.4a1.72,1.72,0,0,0-.76-.59,2.51,2.51,0,0,0-1-.19,2.43,2.43,0,0,0-1,.2,2.32,2.32,0,0,0-.77.55,2.5,2.5,0,0,0-.5.82,2.9,2.9,0,0,0-.18,1,3,3,0,0,0,.18,1.06,2.45,2.45,0,0,0,.5.82,2.24,2.24,0,0,0,.76.53,2.42,2.42,0,0,0,1,.19,2.26,2.26,0,0,0,1.07-.24,2.07,2.07,0,0,0,.73-.62l1.43,1.34A4,4,0,0,1,50.13,15.33Z"/><path class="cls-2" d="M61,11.2A4.74,4.74,0,0,1,60.7,13a4.19,4.19,0,0,1-1,1.43,4.3,4.3,0,0,1-1.47.92,5.41,5.41,0,0,1-3.69,0,4.31,4.31,0,0,1-1.46-.92,4.19,4.19,0,0,1-1-1.43,4.73,4.73,0,0,1-.35-1.84,4.67,4.67,0,0,1,.35-1.84,4,4,0,0,1,1-1.4,4.3,4.3,0,0,1,1.46-.89,5.61,5.61,0,0,1,3.69,0A4.29,4.29,0,0,1,59.73,8a4,4,0,0,1,1,1.4A4.68,4.68,0,0,1,61,11.2Zm-2.2,0a2.91,2.91,0,0,0-.18-1,2.47,2.47,0,0,0-.5-.82,2.3,2.3,0,0,0-.77-.54,2.43,2.43,0,0,0-1-.2,2.36,2.36,0,0,0-1.75.74,2.33,2.33,0,0,0-.5.82,3,3,0,0,0-.17,1,3,3,0,0,0,.18,1.06,2.52,2.52,0,0,0,.5.83,2.27,2.27,0,0,0,.76.55,2.55,2.55,0,0,0,2,0,2.34,2.34,0,0,0,.77-.55,2.46,2.46,0,0,0,.5-.83A3,3,0,0,0,58.85,11.2Z"/><path class="cls-2" d="M70.37,11.21A4.18,4.18,0,0,1,70,13.14a3.88,3.88,0,0,1-1.09,1.33,4.54,4.54,0,0,1-1.53.77,6.2,6.2,0,0,1-1.73.25H62.44V7h3.07a7.61,7.61,0,0,1,1.78.21,4.46,4.46,0,0,1,1.56.7,3.56,3.56,0,0,1,1.1,1.3A4.38,4.38,0,0,1,70.37,11.21Zm-2.14,0A2.69,2.69,0,0,0,68,10a2,2,0,0,0-.62-.76,2.51,2.51,0,0,0-.89-.4,4.36,4.36,0,0,0-1-.12h-1v5h1a4.42,4.42,0,0,0,1.06-.13,2.51,2.51,0,0,0,.9-.41A2.05,2.05,0,0,0,68,12.4,2.69,2.69,0,0,0,68.23,11.21Z"/><path class="cls-2" d="M71.75,15.48V7h5.71V8.72H73.73v1.61h3.53V12H73.73v1.76h3.95v1.75Z"/><path class="cls-2" d="M83.72,15.48l-1.84-3.37h-.7v3.37h-2V7h3.24a5.63,5.63,0,0,1,1.19.13,3.1,3.1,0,0,1,1,.43,2.22,2.22,0,0,1,.74.79,2.47,2.47,0,0,1,.28,1.22A2.26,2.26,0,0,1,85.2,11a2.55,2.55,0,0,1-1.3.84l2.22,3.64Zm-.08-5.89a.85.85,0,0,0-.13-.49.86.86,0,0,0-.33-.29,1.43,1.43,0,0,0-.45-.14,3.31,3.31,0,0,0-.48,0h-1.1v2h1a3.33,3.33,0,0,0,.52,0,1.68,1.68,0,0,0,.48-.15.87.87,0,0,0,.49-.84Z"/><path class="cls-2" d="M91.7,9.2A1.85,1.85,0,0,0,91,8.66a1.94,1.94,0,0,0-.82-.2,2.45,2.45,0,0,0-.41,0,1.07,1.07,0,0,0-.38.14.94.94,0,0,0-.28.26.7.7,0,0,0-.11.41.67.67,0,0,0,.09.36.8.8,0,0,0,.26.25,2.32,2.32,0,0,0,.41.2l.54.19.9.32a3.38,3.38,0,0,1,.85.46,2.43,2.43,0,0,1,.64.71A2.06,2.06,0,0,1,93,12.87a2.77,2.77,0,0,1-.27,1.27A2.52,2.52,0,0,1,92,15a3.11,3.11,0,0,1-1,.52,4.38,4.38,0,0,1-1.21.17,5,5,0,0,1-1.76-.32,3.73,3.73,0,0,1-1.42-.91l1.34-1.37a2.48,2.48,0,0,0,.82.64,2.23,2.23,0,0,0,1,.26,2,2,0,0,0,.44,0,1.1,1.1,0,0,0,.38-.16.78.78,0,0,0,.26-.29.91.91,0,0,0,.1-.43.68.68,0,0,0-.12-.41,1.17,1.17,0,0,0-.34-.31,2.77,2.77,0,0,0-.55-.25l-.75-.25a7.2,7.2,0,0,1-.8-.31,2.66,2.66,0,0,1-.7-.46,2.14,2.14,0,0,1-.49-.68,2.32,2.32,0,0,1-.19-1,2.4,2.4,0,0,1,.29-1.21A2.5,2.5,0,0,1,88,7.4,3.24,3.24,0,0,1,89,6.92a4.78,4.78,0,0,1,1.19-.15A4.41,4.41,0,0,1,91.7,7,3.79,3.79,0,0,1,93,7.82Z"/><path class="cls-2" d="M100.5,14.23h0V7h.86v8.5h-1.08L95.36,8.18h0v7.31h-.86V7h1.08Z"/><path class="cls-2" d="M104.52,14.72h4.55v.77h-5.41V7h5.27v.77h-4.4v2.92h4.12v.77h-4.12Z"/><path class="cls-2" d="M113.05,14.3h0L115.2,7h1l2.12,7.31h0L120.46,7h.91l-2.51,8.5h-1l-2.14-7.3h0l-2.14,7.3h-1L110,7H111Z"/><path class="cls-2" d="M126.74,8.36a2.08,2.08,0,0,0-.71-.62,2.17,2.17,0,0,0-1-.23,2.23,2.23,0,0,0-.64.1,1.84,1.84,0,0,0-.59.29,1.51,1.51,0,0,0-.43.5,1.46,1.46,0,0,0-.16.71,1.31,1.31,0,0,0,.16.67,1.47,1.47,0,0,0,.41.45,2.37,2.37,0,0,0,.59.31l.69.24.89.31a3.2,3.2,0,0,1,.81.44,2.12,2.12,0,0,1,.59.68,2.17,2.17,0,0,1,.23,1.05,2.25,2.25,0,0,1-.87,1.86,2.62,2.62,0,0,1-.89.44,3.58,3.58,0,0,1-1,.14,3.86,3.86,0,0,1-.77-.08,3.5,3.5,0,0,1-.73-.23,3,3,0,0,1-.65-.4,2.87,2.87,0,0,1-.53-.55l.74-.55a2.27,2.27,0,0,0,.77.76,2.19,2.19,0,0,0,1.17.31,2.27,2.27,0,0,0,.66-.1,1.85,1.85,0,0,0,.61-.31,1.74,1.74,0,0,0,.44-.52,1.6,1.6,0,0,0,0-1.45,1.56,1.56,0,0,0-.46-.49,2.82,2.82,0,0,0-.66-.33l-.78-.26c-.28-.09-.56-.19-.83-.3a2.81,2.81,0,0,1-.73-.44,2,2,0,0,1-.52-.67,2.16,2.16,0,0,1-.2-1,2.15,2.15,0,0,1,.25-1.06,2.23,2.23,0,0,1,.64-.73,2.69,2.69,0,0,1,.88-.42,3.56,3.56,0,0,1,.95-.13,3.27,3.27,0,0,1,1.48.31,2.53,2.53,0,0,1,.92.73Z"/></g></g></svg>